<svg width="23" height="48" viewBox="0 0 23 48" version="1.1" xmlns="http://www.w3.org/2000/svg" xmlns:xlink="http://www.w3.org/1999/xlink">
<title>arrow-down</title>
<desc>Created using Figma</desc>
<g id="Canvas" transform="translate(1620 -420)">
<g id="arrow-down" opacity="0.8">
<g id="surface1">
<g id="Vector">
<use xlink:href="#path0_fill" transform="translate(-1620 420)" fill="#FFFFFF"/>
</g>
</g>
</g>
</g>
<defs>
<path id="path0_fill" d="M 10.9955 0.000104752C 10.4447 0.0118238 10.0033 0.464949 10.0111 1.01573L 10.0111 44.2696L 1.70249 36.297C 1.51108 36.1056 1.24936 36.0001 0.979829 36.004C 0.573579 36.0157 0.210298 36.2696 0.0657673 36.6485C -0.0787647 37.0274 0.0188916 37.4571 0.319673 37.7345L 11.0111 48.0001L 21.7025 37.7345C 21.9642 37.4884 22.0736 37.1212 21.9876 36.7735C 21.9017 36.4259 21.6361 36.1485 21.2923 36.0509C 20.9447 35.9493 20.5736 36.0431 20.3197 36.297L 12.0111 44.2696L 12.0111 1.01573C 12.015 0.746199 11.9095 0.48448 11.7181 0.293074C 11.5267 0.101668 11.265 -0.00380125 10.9955 0.000104752Z"/>
</defs>
</svg>
