<?xml version="1.0" encoding="UTF-8"?>
<svg width="121px" height="136px" viewBox="0 0 121 136" version="1.1" xmlns="http://www.w3.org/2000/svg" xmlns:xlink="http://www.w3.org/1999/xlink">
    <!-- Generator: Sketch 47.1 (45422) - http://www.bohemiancoding.com/sketch -->
    <title>elite</title>
    <desc>Created with Sketch.</desc>
    <defs></defs>
    <g id="Page-1" stroke="none" stroke-width="1" fill="none" fill-rule="evenodd">
        <g id="elite" fill-rule="nonzero">
            <path d="M120,90 C120,94.4 117,100 113.3,102.4 L66.6,133.5 C62.9,135.9 56.9,135.9 53.3,133.5 L6.7,102.4 C3,100 -7.10542736e-15,94.4 -7.10542736e-15,90 L-7.10542736e-15,46 C-7.10542736e-15,41.6 3,36 6.7,33.6 L53.3,2.4 C57,8.43769499e-15 63,8.43769499e-15 66.7,2.4 L113.4,33.5 C117.1,35.9 120.1,41.5 120.1,45.9 L120.1,90 L120,90 Z" id="Shape" fill="#FFFFFF"></path>
            <path d="M44,54 L76,54 L76,60 L44,60 L44,54 Z M40,64 L80,64 L80,70 L40,70 L40,64 Z M35,74 L85,74 L85,80 L35,80 L35,74 Z M60,31 C80.4,31 97,47.6 97,68 C97,88.4 80.4,105 60,105 C39.6,105 23,88.4 23,68 C23,47.6 39.6,31 60,31 L60,31 Z M60,28 C37.9,28 20,45.9 20,68 C20,90.1 37.9,108 60,108 C82.1,108 100,90.1 100,68 C100,45.9 82.1,28 60,28 Z" id="Shape" fill="#141415"></path>
            <path d="M60,4.6 C61.7,4.6 63.3,5 64.4,5.8 L111.1,36.9 C113.7,38.6 116,42.9 116,46 L116,90 C116,93.1 113.7,97.4 111.1,99.1 L64.4,130.2 C63.3,130.9 61.7,131.4 60,131.4 C58.3,131.4 56.7,131 55.6,130.2 L8.9,99.1 C6.3,97.4 4,93.1 4,90 L4,46 C4,42.9 6.3,38.6 8.9,36.9 L55.6,5.8 C56.7,5 58.3,4.6 60,4.6 L60,4.6 Z M60,0.6 C57.6,0.6 55.2,1.2 53.3,2.4 L6.7,33.6 C3,36 0,41.6 0,46 L0,90 C0,94.4 3,100 6.7,102.4 L53.4,133.5 C55.2,134.7 57.6,135.3 60.1,135.3 C62.6,135.3 64.9,134.7 66.8,133.5 L113.5,102.4 C117.2,100 120.2,94.4 120.2,90 L120.2,46 C120.2,41.6 117.2,36 113.5,33.6 L66.7,2.4 C64.8,1.2 62.4,0.6 60,0.6 Z" id="Shape" fill="#FFFFFF"></path>
        </g>
    </g>
</svg>