<?xml version="1.0" encoding="UTF-8"?>
<svg width="120px" height="136px" viewBox="0 0 120 136" version="1.1" xmlns="http://www.w3.org/2000/svg" xmlns:xlink="http://www.w3.org/1999/xlink">
    <!-- Generator: Sketch 47.1 (45422) - http://www.bohemiancoding.com/sketch -->
    <title>featured</title>
    <desc>Created with Sketch.</desc>
    <defs></defs>
    <g id="Page-1" stroke="none" stroke-width="1" fill="none" fill-rule="evenodd">
        <g id="featured" fill-rule="nonzero">
            <path d="M120,89.997 C120,94.399 117.003,99.998 113.341,102.44 L66.659,133.561 C62.997,136.003 57.003,136.003 53.341,133.561 L6.659,102.439 C2.997,99.998 -7.10542736e-15,94.399 -7.10542736e-15,89.997 L-7.10542736e-15,46.003 C-7.10542736e-15,41.601 2.997,36.002 6.659,33.56 L53.341,2.439 C57.003,-0.003 62.997,-0.003 66.659,2.439 L113.341,33.56 C117.003,36.002 120,41.601 120,46.003 L120,89.997 Z" id="Shape" fill="#FFFFFF"></path>
            <g id="Group" transform="translate(17.000000, 1.000000)">
                <path d="M75,71 C69.486,71 65,66.514 65,61 C65,55.486 69.486,51 75,51 C80.514,51 85,55.486 85,61 C85,66.514 80.514,71 75,71 Z" id="Shape" fill="#141415"></path>
                <path d="M75,52 C79.971,52 84,56.029 84,61 C84,65.971 79.971,70 75,70 C70.029,70 66,65.971 66,61 C66,56.029 70.029,52 75,52 L75,52 Z M75,50 C68.935,50 64,54.935 64,61 C64,67.065 68.935,72 75,72 C81.065,72 86,67.065 86,61 C86,54.935 81.065,50 75,50 Z" id="Shape" fill="#FFFFFF"></path>
                <path d="M68,99 C67.48,99 67.047,98.602 67.003,98.083 L65.725,82.748 C65.517,80.247 66.371,77.753 68.071,75.906 C69.771,74.059 72.185,73 74.694,73 L75.305,73 C77.815,73 80.228,74.059 81.928,75.906 C83.628,77.753 84.483,80.247 84.274,82.748 L82.996,98.083 C82.953,98.602 82.52,99 82,99 L68,99 L68,99 Z" id="Shape" fill="#141415"></path>
                <path d="M75.306,74 C79.986,74 83.667,78 83.278,82.664 L82,98 L68,98 L66.722,82.664 C66.333,78 70.014,74 74.694,74 L75.306,74 L75.306,74 Z M75.306,72 L74.695,72 C71.907,72 69.224,73.177 67.336,75.229 C65.448,77.281 64.498,80.052 64.729,82.831 L66.007,98.167 C66.093,99.203 66.96,100 68,100 L82,100 C83.04,100 83.907,99.203 83.993,98.166 L85.271,82.83 C85.503,80.051 84.552,77.28 82.664,75.228 C80.776,73.177 78.094,72 75.306,72 Z" id="Shape" fill="#FFFFFF"></path>
                <path d="M11,71 C5.486,71 1,66.514 1,61 C1,55.486 5.486,51 11,51 C16.514,51 21,55.486 21,61 C21,66.514 16.514,71 11,71 Z" id="Shape" fill="#141415"></path>
                <path d="M11,52 C15.971,52 20,56.029 20,61 C20,65.971 15.971,70 11,70 C6.029,70 2,65.971 2,61 C2,56.029 6.029,52 11,52 L11,52 Z M11,50 C4.935,50 0,54.935 0,61 C0,67.065 4.935,72 11,72 C17.065,72 22,67.065 22,61 C22,54.935 17.065,50 11,50 Z" id="Shape" fill="#FFFFFF"></path>
                <path d="M4,99 C3.48,99 3.047,98.602 3.003,98.083 L1.725,82.748 C1.517,80.247 2.371,77.753 4.071,75.906 C5.771,74.059 8.185,73 10.694,73 L11.305,73 C13.815,73 16.228,74.059 17.928,75.906 C19.628,77.753 20.483,80.247 20.274,82.748 L18.996,98.083 C18.953,98.602 18.52,99 18,99 L4,99 Z" id="Shape" fill="#141415"></path>
                <path d="M11.306,74 C15.986,74 19.667,78 19.278,82.664 L18,98 L4,98 L2.722,82.664 C2.333,78 6.014,74 10.694,74 L11.306,74 L11.306,74 Z M11.306,72 L10.695,72 C7.907,72 5.224,73.177 3.336,75.229 C1.448,77.281 0.498,80.052 0.729,82.831 L2.007,98.167 C2.093,99.203 2.96,100 4,100 L18,100 C19.04,100 19.907,99.203 19.993,98.166 L21.271,82.83 C21.503,80.051 20.552,77.28 18.664,75.228 C16.776,73.177 14.094,72 11.306,72 Z" id="Shape" fill="#FFFFFF"></path>
                <g transform="translate(5.000000, 0.000000)" id="Shape" fill="#141415">
                    <path d="M30.5,2 L45.5,2 L44.659,1.439 C43.668,0.779 42.504,0.303 41.264,0 L34.736,0 C33.496,0.303 32.332,0.779 31.341,1.439 L30.5,2 Z M0.212,98.616 C0.402,98.858 0.692,99 1,99 L75,99 C75.308,99 75.598,98.858 75.788,98.616 C75.978,98.374 76.045,98.058 75.971,97.76 L53.616,7.411 L51.149,5.766 L73.723,97 L2.277,97 L24.851,5.766 L22.384,7.411 L0.029,97.76 C-0.044,98.058 0.023,98.374 0.212,98.616 Z"></path>
                </g>
                <path d="M78.723,97 L56.149,5.766 L50.5,2 L35.5,2 L29.851,5.766 L7.277,97 L78.723,97 Z M43,104 C42.62,104 5,103.931 5,98 C5,92.069 42.62,92 43,92 C43.38,92 81,92.069 81,98 C81,103.931 43.38,104 43,104 Z" id="Shape" fill="#FFFFFF"></path>
                <path d="M43,93 C62.33,93 80,95.239 80,98 C80,100.761 62.33,103 43,103 C23.67,103 6,100.761 6,98 C6,95.239 23.67,93 43,93 L43,93 Z M43,91 C33.582,91 24.101,91.54 16.989,92.482 C8.97,93.543 4,94.837 4,98 C4,101.163 8.97,102.457 16.989,103.518 C24.101,104.46 33.582,105 43,105 C52.418,105 61.899,104.46 69.011,103.518 C77.03,102.457 82,101.163 82,98 C82,94.837 77.03,93.543 69.011,92.482 C61.899,91.54 52.418,91 43,91 Z M43,63.5 C35.556,63.5 29.5,57.444 29.5,50 C29.5,42.556 35.556,36.5 43,36.5 C50.444,36.5 56.5,42.556 56.5,50 C56.5,57.444 50.444,63.5 43,63.5 Z" id="Shape" fill="#141415"></path>
                <path d="M43,38 C49.627,38 55,43.373 55,50 C55,56.627 49.627,62 43,62 C36.373,62 31,56.627 31,50 C31,43.373 36.373,38 43,38 L43,38 Z M43,35 C34.729,35 28,41.729 28,50 C28,58.271 34.729,65 43,65 C51.271,65 58,58.271 58,50 C58,41.729 51.271,35 43,35 Z" id="Shape" fill="#FFFFFF"></path>
                <path d="M33,98.5 C32.21,98.5 31.556,97.888 31.503,97.1 L30.214,77.765 C30,74.555 31.092,71.494 33.291,69.144 C35.49,66.794 38.472,65.5 41.689,65.5 L44.311,65.5 C47.528,65.5 50.511,66.794 52.709,69.144 C54.907,71.494 56,74.555 55.786,77.765 L54.497,97.1 C54.445,97.888 53.79,98.5 53,98.5 L33,98.5 L33,98.5 Z" id="Shape" fill="#141415"></path>
                <path d="M44.311,67 C50.096,67 54.674,71.893 54.289,77.665 L53,97 L33,97 L31.711,77.665 C31.326,71.893 35.904,67 41.689,67 L44.311,67 L44.311,67 Z M44.311,64 L41.689,64 C38.105,64 34.644,65.501 32.196,68.119 C29.748,70.737 28.48,74.289 28.718,77.865 L30.007,97.2 C30.112,98.776 31.421,100 33,100 L53,100 C54.579,100 55.888,98.775 55.993,97.2 L57.282,77.865 C57.52,74.289 56.253,70.736 53.804,68.119 C51.355,65.502 47.896,64 44.311,64 L44.311,64 Z" id="Shape" fill="#FFFFFF"></path>
            </g>
            <path d="M60,4.608 C61.717,4.608 63.335,5.031 64.44,5.767 L111.122,36.888 C113.675,38.59 116,42.934 116,46.002 L116,89.996 C116,93.064 113.675,97.408 111.122,99.11 L64.44,130.232 C63.335,130.969 61.716,131.391 60,131.391 C58.284,131.391 56.665,130.968 55.56,130.232 L8.878,99.111 C6.325,97.409 4,93.065 4,89.997 L4,46.003 C4,42.935 6.325,38.591 8.878,36.889 L55.56,5.768 C56.665,5.031 58.283,4.608 60,4.608 L60,4.608 Z M60,0.608 C57.586,0.608 55.172,1.218 53.341,2.439 L6.659,33.561 C2.997,36.002 0,41.601 0,46.003 L0,89.997 C0,94.399 2.997,99.998 6.659,102.44 L53.341,133.561 C55.172,134.782 57.586,135.392 60,135.392 C62.414,135.392 64.828,134.782 66.659,133.561 L113.341,102.44 C117.003,99.998 120,94.399 120,89.997 L120,46.003 C120,41.601 117.003,36.002 113.341,33.56 L66.659,2.439 C64.828,1.219 62.414,0.608 60,0.608 Z" id="Shape" fill="#FFFFFF"></path>
        </g>
    </g>
</svg>