<svg width="84" height="21" viewBox="0 0 84 21" version="1.1" xmlns="http://www.w3.org/2000/svg" xmlns:xlink="http://www.w3.org/1999/xlink">
<title>logo-dark</title>
<desc>Created using Figma</desc>
<g id="Canvas" transform="translate(1618 437)">
<g id="logo-dark">
<use xlink:href="#path0_fill" transform="translate(-1620 -445)"/>
</g>
</g>
<defs>
<path id="path0_fill" d="M 2.28 8.99L 2.28 29L 6.18 29L 6.18 8.99L 2.28 8.99ZM 14.5268 8.99L 22.9268 29L 25.2668 29L 33.7268 8.99L 29.4668 8.99L 24.1268 22.43L 18.7868 8.99L 14.5268 8.99ZM 53.8277 29L 58.0277 29L 49.6577 8.99L 46.5977 8.99L 37.9877 29L 42.2177 29L 43.9877 24.8L 52.0577 24.8L 53.8277 29ZM 45.2177 21.62L 48.0677 14.42L 50.9177 21.62L 45.2177 21.62ZM 70.264 29L 70.264 15.62L 82.444 29L 85.144 29L 85.144 8.99L 81.244 8.99L 81.244 22.34L 69.064 8.99L 66.364 8.99L 66.364 29L 70.264 29Z"/>
</defs>
</svg>
