<svg width="94" height="17" viewBox="0 0 94 17" version="1.1" xmlns="http://www.w3.org/2000/svg" xmlns:xlink="http://www.w3.org/1999/xlink">
<title>logo-dark</title>
<desc>Created using Figma</desc>
<g id="Canvas" transform="translate(1619 438)">
<g id="logo-dark">
<use xlink:href="#path0_fill" transform="translate(-1620 -445)"/>
</g>
</g>
<defs>
<path id="path0_fill" d="M 1.824 7.992L 1.824 24L 5.52 24L 5.52 7.992L 1.824 7.992ZM 20.4319 7.992L 27.2239 24L 29.7199 24L 36.5119 7.992L 32.5279 7.992L 28.4719 18.24L 24.4159 7.992L 20.4319 7.992ZM 60.2037 24L 64.0438 24L 57.7318 7.992L 54.3477 7.992L 47.8918 24L 51.7317 24L 52.9558 20.976L 59.0037 20.976L 60.2037 24ZM 54.0358 18.144L 56.0277 12.768L 57.9958 18.144L 54.0358 18.144ZM 82.5339 24L 82.5339 13.632L 91.2219 24L 94.4379 24L 94.4379 7.992L 90.7419 7.992L 90.7419 18.312L 82.0539 7.992L 78.8379 7.992L 78.8379 24L 82.5339 24Z"/>
</defs>
</svg>
