<svg width="305" height="22" viewBox="0 0 305 22" version="1.1" xmlns="http://www.w3.org/2000/svg" xmlns:xlink="http://www.w3.org/1999/xlink">
<title>logo-dark</title>
<desc>Created using Figma</desc>
<g id="Canvas" transform="translate(1618 436)">
<g id="logo-dark">
<use xlink:href="#path0_fill" transform="translate(-1620 -444)"/>
</g>
</g>
<defs>
<path id="path0_fill" d="M 2.1 8.99L 2.1 29L 7.29 29L 7.29 8.99L 2.1 8.99ZM 14.4043 8.99L 22.8043 29L 26.8543 29L 35.3743 8.99L 29.7343 8.99L 24.8743 21.17L 20.0743 8.99L 14.4043 8.99ZM 54.4267 29L 59.9767 29L 52.4467 8.99L 46.7767 8.99L 39.0967 29L 44.5867 29L 45.9367 25.64L 53.1967 25.64L 54.4267 29ZM 47.3767 21.68L 49.5667 15.2L 51.8167 21.68L 47.3767 21.68ZM 72.4755 29L 72.4755 16.76L 82.0455 29L 87.2355 29L 87.2355 8.99L 82.0455 8.99L 82.0455 21.23L 72.4755 8.99L 67.2855 8.99L 67.2855 29L 72.4755 29ZM 122.798 22.31C 120.968 24.32 119.048 24.41 118.268 24.41C 116.798 24.41 115.418 23.84 114.548 23.03C 113.498 22.04 112.928 20.51 112.928 19.13C 112.928 17.72 113.438 16.16 114.668 15.02C 115.628 14.15 116.768 13.7 118.268 13.7C 119.138 13.7 121.118 13.82 122.798 15.89L 122.798 9.68C 120.638 8.81 119.078 8.66 118.118 8.66C 114.998 8.66 112.328 9.98 110.558 11.78C 108.758 13.61 107.528 16.31 107.528 19.16C 107.528 21.77 108.608 24.5 110.558 26.45C 112.208 28.07 114.818 29.45 118.298 29.45C 119.588 29.45 120.728 29.21 122.798 28.46L 122.798 22.31ZM 136.284 8.99L 131.094 8.99L 131.094 29L 136.284 29L 136.284 20.9L 143.784 20.9L 143.784 29L 149.004 29L 149.004 8.99L 143.784 8.99L 143.784 16.46L 136.284 16.46L 136.284 8.99ZM 158.213 8.99L 158.213 29L 163.403 29L 163.403 21.32L 168.383 29L 174.833 29L 168.563 20.81C 169.493 20.63 170.543 20.18 171.323 19.43C 172.313 18.47 172.913 16.97 172.913 15.26C 172.913 13.67 172.343 11.93 171.203 10.76C 169.733 9.23 167.813 8.99 166.313 8.99L 158.213 8.99ZM 163.403 13.01L 164.393 13.01C 165.533 13.01 166.403 13.31 166.883 13.79C 167.333 14.21 167.573 14.87 167.573 15.47C 167.573 16.1 167.303 16.76 166.913 17.15C 166.283 17.75 165.173 17.96 164.393 17.96L 163.403 17.96L 163.403 13.01ZM 203.202 19.01C 203.202 16.34 202.182 13.52 200.052 11.51C 198.012 9.56 195.132 8.54 192.162 8.54C 189.192 8.54 186.312 9.56 184.272 11.51C 182.142 13.52 181.122 16.34 181.122 19.01C 181.122 21.65 182.142 24.44 184.272 26.48C 186.312 28.43 189.192 29.45 192.162 29.45C 195.132 29.45 198.012 28.43 200.052 26.48C 202.182 24.44 203.202 21.65 203.202 19.01ZM 192.162 13.58C 193.542 13.58 195.072 14.12 196.182 15.17C 197.112 16.07 197.802 17.45 197.802 19.01C 197.802 20.54 197.112 21.92 196.182 22.85C 195.252 23.78 193.932 24.41 192.162 24.41C 190.422 24.41 189.072 23.75 188.112 22.82C 187.362 22.1 186.522 20.87 186.522 19.1C 186.522 17.69 187.032 16.22 188.112 15.17C 189.192 14.09 190.722 13.58 192.162 13.58ZM 215.393 29L 217.103 17.48L 221.723 29L 223.793 29L 228.623 17.48L 230.093 29L 235.283 29L 232.283 8.99L 227.093 8.99L 222.803 19.67L 218.753 8.99L 213.623 8.99L 210.233 29L 215.393 29ZM 248.234 8.99L 248.234 22.64C 248.234 23.24 248.144 24.23 247.694 24.65C 247.484 24.83 247.124 24.98 246.794 24.98C 246.494 24.98 246.074 24.83 245.804 24.62C 245.444 24.32 245.144 23.57 245.084 23.03L 241.694 26.51C 242.264 27.38 242.954 28.07 243.674 28.55C 244.784 29.27 245.714 29.45 246.824 29.45C 248.834 29.45 250.394 28.88 251.714 27.56C 253.274 26 253.424 24.62 253.424 22.76L 253.424 8.99L 248.234 8.99ZM 275.296 29L 280.846 29L 273.316 8.99L 267.646 8.99L 259.966 29L 265.456 29L 266.806 25.64L 274.066 25.64L 275.296 29ZM 268.246 21.68L 270.436 15.2L 272.686 21.68L 268.246 21.68ZM 293.345 8.99L 288.155 8.99L 288.155 29L 293.345 29L 293.345 20.33L 300.125 29L 306.845 29L 298.175 18.47L 306.125 8.99L 299.705 8.99L 293.345 17.24L 293.345 8.99Z"/>
</defs>
</svg>
