<?xml version="1.0" encoding="UTF-8"?>
<svg width="121px" height="136px" viewBox="0 0 121 136" version="1.1" xmlns="http://www.w3.org/2000/svg" xmlns:xlink="http://www.w3.org/1999/xlink">
    <!-- Generator: Sketch 47.1 (45422) - http://www.bohemiancoding.com/sketch -->
    <title>top-seller</title>
    <desc>Created with Sketch.</desc>
    <defs></defs>
    <g id="Page-1" stroke="none" stroke-width="1" fill="none" fill-rule="evenodd">
        <g id="top-seller" fill-rule="nonzero">
            <path d="M120,90 C120,94.4 117,100 113.3,102.4 L66.6,133.5 C62.9,135.9 56.9,135.9 53.3,133.5 L6.7,102.4 C3,100 -7.10542736e-15,94.4 -7.10542736e-15,90 L-7.10542736e-15,46 C-7.10542736e-15,41.6 3,36 6.7,33.6 L53.3,2.4 C57,8.43769499e-15 63,8.43769499e-15 66.7,2.4 L113.4,33.5 C117.1,35.9 120.1,41.5 120.1,45.9 L120.1,90 L120,90 Z" id="Shape" fill="#FFFFFF"></path>
            <path d="M78,96.1 L70.5,74.7 C70.6,71.8 70.7,68.9 70.7,66.7 C70.7,50.9 63,38 60,38 C57,38 49.3,50.9 49.3,66.7 C49.3,69.1 49.4,72 49.4,74.7 L42,96.1 C41.8,96.6 42.1,97.1 42.5,96.9 L50.1,93.7 L50.3,93.7 L52.1,94.5 C53,95.9 54,96.9 55.1,97.3 C57.7,98.3 62,98.3 64.7,97.3 C65.8,96.9 66.9,95.8 67.8,94.5 L69.5,93.8 L69.7,93.8 L77.3,97 C77.8,97.1 78.1,96.6 78,96.1 L78,96.1 Z M60,66.1 C57.8,66.1 56,64.3 56,62.1 C56,59.9 57.8,58.1 60,58.1 C62.2,58.1 64,59.9 64,62.1 C64,64.3 62.2,66.1 60,66.1 Z" id="Shape" fill="#141415"></path>
            <path d="M64.1,82.2 C64.1,79.9 62.1,79.3 60.6,78.8 C59.5,78.5 58.8,78.2 58.8,77.5 C58.8,76.7 59.5,76.4 60.3,76.4 C60.7,76.4 61.2,76.5 61.8,76.9 C62.2,77.1 62.4,77.2 62.6,77.2 C63.3,77.2 63.8,76.6 63.8,76 C63.8,75.6 63.6,75.2 63.1,74.9 C62.6,74.6 61.8,74.4 61.1,74.3 L61.1,73.4 C61.1,72.8 60.6,72.3 60,72.3 C59.4,72.3 58.9,72.8 58.9,73.4 L58.9,74.5 C57.4,74.9 56.1,76 56.1,77.9 C56.1,80 57.6,80.7 59,81.2 C60.5,81.7 61.4,82 61.4,82.8 C61.4,83.7 60.7,84 60,84 C59.3,84 58.5,83.7 58.1,83.4 C57.7,83.1 57.4,83 57.2,83 C56.5,83 55.9,83.6 55.9,84.3 C55.9,84.6 56,85 56.5,85.4 C57,85.8 58,86.1 58.9,86.3 L58.9,87.3 C58.9,87.9 59.4,88.4 60,88.4 C60.6,88.4 61.1,87.9 61.1,87.3 L61.1,86.2 C62.8,85.4 64.1,84.3 64.1,82.2 Z" id="Shape" fill="#FFFFFF"></path>
            <path d="M39.3,124.2 L53.4,133.6 C57.1,136 63.1,136 66.7,133.6 L78.5,125.7 C77.4,122.2 74.5,119.4 70.9,118.4 C71,117.9 71,117.5 71,117 C71,113.4 68.8,110.2 65.7,108.8 C65.9,108.2 66,107.6 66,107 C66,103.7 63.3,101 60,101 C56.7,101 54,103.7 54,107 C54,107.6 54.1,108.1 54.2,108.7 C50,110.2 47,114.2 47,119 C47,119.7 47.1,120.4 47.2,121 L47,121 C44,121 41.3,122.2 39.3,124.2 L39.3,124.2 Z" id="Shape" fill="#141415"></path>
            <path d="M60,4.6 C61.7,4.6 63.3,5 64.4,5.8 L111.1,36.9 C113.7,38.6 116,42.9 116,46 L116,90 C116,93.1 113.7,97.4 111.1,99.1 L64.4,130.2 C63.3,130.9 61.7,131.4 60,131.4 C58.3,131.4 56.7,131 55.6,130.2 L8.9,99.1 C6.3,97.4 4,93.1 4,90 L4,46 C4,42.9 6.3,38.6 8.9,36.9 L55.6,5.8 C56.7,5 58.3,4.6 60,4.6 L60,4.6 Z M60,0.6 C57.6,0.6 55.2,1.2 53.3,2.4 L6.7,33.6 C3,36 0,41.6 0,46 L0,90 C0,94.4 3,100 6.7,102.4 L53.4,133.5 C55.2,134.7 57.6,135.3 60.1,135.3 C62.6,135.3 64.9,134.7 66.8,133.5 L113.5,102.4 C117.2,100 120.2,94.4 120.2,90 L120.2,46 C120.2,41.6 117.2,36 113.5,33.6 L66.7,2.4 C64.8,1.2 62.4,0.6 60,0.6 Z" id="Shape" fill="#FFFFFF"></path>
        </g>
    </g>
</svg>