<?xml version="1.0" encoding="iso-8859-1"?>
<!-- Generator: Adobe Illustrator 21.1.0, SVG Export Plug-In . SVG Version: 6.00 Build 0)  -->
<svg xmlns="http://www.w3.org/2000/svg" xmlns:xlink="http://www.w3.org/1999/xlink" version="1.1" id="Layer_1" x="0px" y="0px" viewBox="0 0 48 48" style="enable-background:new 0 0 48 48;" xml:space="preserve" width="64px" height="64px">
<path style="fill:#9C27B0;" d="M18.808,4C12.832,4,7.646,8.049,6.196,13.846l-0.195,0.78l3.525,1.751l0.403-1.006  C11.394,11.707,14.216,10,18.808,10h2.285l-1.684,7H16l-1,6h3.145l-2.409,9.442C15.069,35.609,12.157,39,8.886,39H6v5h2.886  c6.111,0,11.462-4.341,12.722-10.321L24.276,23H33l1-6h-8.46l1.684-7H41l1-6H18.808z"/>
</svg>
