<?xml version="1.0" encoding="UTF-8"?>
<svg xmlns="http://www.w3.org/2000/svg" xmlns:xlink="http://www.w3.org/1999/xlink" viewBox="0 0 48 48" version="1.1" width="64px" height="64px">
<g id="surface1">
<path style=" fill:#3F51B5;" d="M 42 16 C 42 16.554688 41.554688 18 41 18 L 7 18 C 6.449219 18 6 16.554688 6 16 L 6 7 C 6 6.445313 6.449219 6 7 6 L 41 6 C 41.554688 6 42 6.445313 42 7 Z "/>
<path style=" fill:#BBDEFB;" d="M 6 14 L 42 14 L 42 42 L 6 42 Z "/>
<path style=" fill:#FFEB3B;" d="M 12 10 C 12 11.105469 11.105469 12 10 12 C 8.894531 12 8 11.105469 8 10 C 8 8.894531 8.894531 8 10 8 C 11.105469 8 12 8.894531 12 10 Z "/>
<path style=" fill:#8BC34A;" d="M 18 10 C 18 11.105469 17.105469 12 16 12 C 14.894531 12 14 11.105469 14 10 C 14 8.894531 14.894531 8 16 8 C 17.105469 8 18 8.894531 18 10 Z "/>
<path style=" fill:#FAFAFA;" d="M 40 10 C 40 9.445313 39.554688 9 39 9 L 22 9 C 21.445313 9 21 9.445313 21 10 C 21 10.554688 21.445313 11 22 11 L 39 11 C 39.554688 11 40 10.554688 40 10 Z "/>
</g>
</svg>
