<?xml version="1.0" encoding="UTF-8"?>
<svg xmlns="http://www.w3.org/2000/svg" xmlns:xlink="http://www.w3.org/1999/xlink" viewBox="0 0 48 48" version="1.1" width="64px" height="64px">
<g id="surface1">
<path style=" fill:#4DB6AC;" d="M 39.988281 12 C 39.988281 12 40.988281 35 24.171875 44 C 7.011719 35 8.011719 12 8.011719 12 C 16.007813 12 24 4 24 4 C 24 4 30.996094 12 39.988281 12 Z "/>
<path style=" fill:#00695C;" d="M 25.496094 25.253906 C 25.496094 24.847656 25.394531 24.539063 25.1875 24.332031 C 24.980469 24.125 24.601563 23.910156 24.054688 23.6875 C 23.058594 23.308594 22.339844 22.863281 21.902344 22.355469 C 21.464844 21.847656 21.246094 21.246094 21.246094 20.554688 C 21.246094 19.714844 21.542969 19.042969 22.140625 18.535156 C 22.734375 18.027344 23.488281 17.773438 24.40625 17.773438 C 25.015625 17.773438 25.558594 17.902344 26.039063 18.160156 C 26.519531 18.417969 26.886719 18.777344 27.144531 19.25 C 27.398438 19.71875 27.527344 20.253906 27.527344 20.847656 L 25.527344 20.847656 C 25.527344 20.382813 25.425781 20.03125 25.230469 19.785156 C 25.03125 19.542969 24.746094 19.421875 24.371094 19.421875 C 24.019531 19.421875 23.746094 19.523438 23.550781 19.730469 C 23.355469 19.9375 23.257813 20.21875 23.257813 20.570313 C 23.257813 20.84375 23.367188 21.089844 23.585938 21.308594 C 23.804688 21.53125 24.191406 21.761719 24.746094 21.996094 C 25.71875 22.347656 26.421875 22.777344 26.863281 23.289063 C 27.300781 23.800781 27.523438 24.449219 27.523438 25.238281 C 27.523438 26.105469 27.246094 26.78125 26.695313 27.269531 C 26.144531 27.753906 25.394531 28 24.445313 28 C 23.800781 28 23.214844 27.867188 22.6875 27.605469 C 22.160156 27.339844 21.746094 26.960938 21.445313 26.46875 C 21.148438 25.976563 21 25.394531 21 24.726563 L 23.015625 24.726563 C 23.015625 25.300781 23.128906 25.71875 23.351563 25.976563 C 23.574219 26.238281 23.941406 26.367188 24.445313 26.367188 C 25.144531 26.367188 25.496094 25.996094 25.496094 25.253906 Z "/>
<path style=" fill:#00695C;" d="M 31.011719 26.332031 L 34.535156 26.332031 L 34.535156 28 L 29 28 L 29 18.046875 L 31.011719 18.046875 Z "/>
<path style=" fill:#00695C;" d="M 17.496094 25.253906 C 17.496094 24.847656 17.394531 24.539063 17.1875 24.332031 C 16.980469 24.125 16.601563 23.910156 16.054688 23.6875 C 15.058594 23.308594 14.339844 22.863281 13.902344 22.355469 C 13.464844 21.847656 13.246094 21.246094 13.246094 20.554688 C 13.246094 19.714844 13.542969 19.042969 14.140625 18.535156 C 14.734375 18.027344 15.488281 17.773438 16.40625 17.773438 C 17.015625 17.773438 17.558594 17.902344 18.039063 18.160156 C 18.519531 18.417969 18.886719 18.777344 19.144531 19.25 C 19.398438 19.71875 19.527344 20.253906 19.527344 20.847656 L 17.527344 20.847656 C 17.527344 20.382813 17.425781 20.03125 17.230469 19.785156 C 17.03125 19.542969 16.746094 19.421875 16.371094 19.421875 C 16.019531 19.421875 15.746094 19.523438 15.550781 19.730469 C 15.355469 19.9375 15.257813 20.21875 15.257813 20.570313 C 15.257813 20.84375 15.367188 21.089844 15.585938 21.308594 C 15.804688 21.53125 16.191406 21.761719 16.746094 21.996094 C 17.71875 22.347656 18.421875 22.777344 18.863281 23.289063 C 19.300781 23.800781 19.523438 24.449219 19.523438 25.238281 C 19.523438 26.105469 19.246094 26.78125 18.695313 27.269531 C 18.144531 27.753906 17.394531 28 16.445313 28 C 15.800781 28 15.214844 27.867188 14.6875 27.605469 C 14.160156 27.339844 13.746094 26.960938 13.445313 26.46875 C 13.148438 25.976563 13 25.394531 13 24.726563 L 15.015625 24.726563 C 15.015625 25.300781 15.128906 25.71875 15.351563 25.976563 C 15.574219 26.238281 15.941406 26.367188 16.445313 26.367188 C 17.144531 26.367188 17.496094 25.996094 17.496094 25.253906 Z "/>
</g>
</svg>
