<?xml version="1.0" encoding="UTF-8"?>
<svg xmlns="http://www.w3.org/2000/svg" xmlns:xlink="http://www.w3.org/1999/xlink" viewBox="0 0 48 48" version="1.1" width="64px" height="64px">
<g id="surface1">
<path style=" fill:#FFC107;" d="M 3 21 L 45 21 L 45 40 L 3 40 Z "/>
<path style=" fill:#455A64;" d="M 45 21 L 45 16 C 45 14.894531 44.105469 14 43 14 L 5 14 C 3.894531 14 3 14.894531 3 16 L 3 21 Z "/>
<path style=" fill:#455A64;" d="M 19 14 L 19 10 L 28 10 L 28 14 L 30 14 L 30 10 C 30 8.894531 29.105469 8 28 8 L 19 8 C 17.894531 8 17 8.894531 17 10 L 17 14 Z "/>
<path style=" fill:#78909C;" d="M 9 19 L 15 19 L 15 28 L 9 28 Z "/>
<path style=" fill:#78909C;" d="M 33 19 L 39 19 L 39 28 L 33 28 Z "/>
<path style=" fill:#455A64;" d="M 9 24 L 15 24 L 15 26 L 9 26 Z "/>
<path style=" fill:#455A64;" d="M 33 24 L 39 24 L 39 26 L 33 26 Z "/>
</g>
</svg>
