<?xml version="1.0" encoding="UTF-8"?>
<svg xmlns="http://www.w3.org/2000/svg" xmlns:xlink="http://www.w3.org/1999/xlink" viewBox="0 0 48 48" version="1.1" width="64px" height="64px">
<g id="surface1">
<path style=" fill:#4DB6AC;" d="M 0 16 C 0 13.789063 1.789063 12 4 12 L 44 12 C 46.210938 12 48 13.789063 48 16 L 48 32 C 48 34.210938 46.210938 36 44 36 L 4 36 C 1.789063 36 0 34.210938 0 32 Z "/>
<path style=" fill:#FFFFFF;" d="M 20.988281 19 L 23 19 L 23 25.890625 C 23 26.855469 22.730469 27.632813 22.191406 28.214844 C 21.65625 28.796875 20.964844 29.089844 20.113281 29.089844 C 19.203125 29.089844 18.496094 28.820313 17.988281 28.277344 C 17.484375 27.734375 17.230469 26.980469 17.230469 26.011719 L 19.246094 26.011719 C 19.246094 26.953125 19.535156 27.421875 20.113281 27.421875 C 20.699219 27.421875 20.988281 26.878906 20.988281 25.792969 Z "/>
<path style=" fill:#FFFFFF;" d="M 28.78125 26.34375 C 28.78125 25.9375 28.679688 25.628906 28.472656 25.421875 C 28.265625 25.214844 27.886719 25 27.339844 24.777344 C 26.34375 24.398438 25.625 23.953125 25.1875 23.445313 C 24.75 22.9375 24.53125 22.335938 24.53125 21.644531 C 24.53125 20.804688 24.828125 20.132813 25.425781 19.625 C 26.019531 19.117188 26.773438 18.863281 27.691406 18.863281 C 28.300781 18.863281 28.847656 18.992188 29.324219 19.25 C 29.804688 19.507813 30.171875 19.871094 30.429688 20.339844 C 30.6875 20.808594 30.816406 21.34375 30.816406 21.9375 L 28.8125 21.9375 C 28.8125 21.472656 28.714844 21.121094 28.515625 20.875 C 28.316406 20.632813 28.03125 20.511719 27.65625 20.511719 C 27.304688 20.511719 27.03125 20.613281 26.839844 20.820313 C 26.640625 21.027344 26.542969 21.308594 26.542969 21.660156 C 26.542969 21.933594 26.652344 22.179688 26.871094 22.398438 C 27.089844 22.621094 27.476563 22.851563 28.035156 23.085938 C 29.003906 23.4375 29.710938 23.867188 30.148438 24.378906 C 30.589844 24.890625 30.808594 25.539063 30.808594 26.328125 C 30.808594 27.195313 30.53125 27.871094 29.980469 28.359375 C 29.429688 28.84375 28.679688 29.089844 27.734375 29.089844 C 27.089844 29.089844 26.503906 28.957031 25.976563 28.691406 C 25.445313 28.429688 25.035156 28.050781 24.734375 27.558594 C 24.4375 27.066406 24.289063 26.484375 24.289063 25.816406 L 26.304688 25.816406 C 26.304688 26.390625 26.414063 26.804688 26.640625 27.066406 C 26.863281 27.324219 27.226563 27.457031 27.734375 27.457031 C 28.433594 27.457031 28.78125 27.085938 28.78125 26.34375 Z "/>
</g>
</svg>
