<?xml version="1.0"?>
<svg xmlns="http://www.w3.org/2000/svg" xmlns:xlink="http://www.w3.org/1999/xlink" version="1.1" viewBox="0 0 252 252" width="512px" height="512px"><g transform=""><g fill="none" fill-rule="nonzero" stroke="none" stroke-width="1" stroke-linecap="butt" stroke-linejoin="miter" stroke-miterlimit="10" stroke-dasharray="" stroke-dashoffset="0" font-family="none" font-weight="none" font-size="none" text-anchor="none" style="mix-blend-mode: normal"><path d="M0,252v-252h252v252z" fill="none"/><g id="&#xD0;&#xA1;&#xD0;&#xBB;&#xD0;&#xBE;&#xD0;&#xB9;_1"><g><g><g fill="#dde9f1"><path d="M234.28125,224.4375h-216.5625v-127.96875c0,-5.5125 4.33125,-9.84375 9.84375,-9.84375h196.875c5.5125,0 9.84375,4.33125 9.84375,9.84375z"/></g><g fill="#ecf0f1"><path d="M234.28125,126h-216.5625v-29.53125c0,-5.5125 4.33125,-9.84375 9.84375,-9.84375h196.875c5.5125,0 9.84375,4.33125 9.84375,9.84375z"/></g><g fill="#ffffff"><path d="M234.28125,210.65625c-3.34687,0 -5.90625,-2.55937 -5.90625,-5.90625v-108.28125c0,-2.16563 -1.77188,-3.9375 -3.9375,-3.9375h-196.875c-2.16562,0 -3.9375,1.77187 -3.9375,3.9375v94.5c0,3.34688 -2.55938,5.90625 -5.90625,5.90625c-3.34687,0 -5.90625,-2.55937 -5.90625,-5.90625v-94.5c0,-8.6625 7.0875,-15.75 15.75,-15.75h196.875c8.6625,0 15.75,7.0875 15.75,15.75v108.28125c0,3.34688 -2.55937,5.90625 -5.90625,5.90625z"/></g><g fill="#7ca5c6"><g><path d="M214.59375,102.375h-88.59375c-3.34688,0 -5.90625,2.55938 -5.90625,5.90625c0,3.34688 2.55937,5.90625 5.90625,5.90625h88.59375c3.34688,0 5.90625,-2.55937 5.90625,-5.90625c0,-3.34688 -2.55937,-5.90625 -5.90625,-5.90625z"/></g><g><path d="M72.64687,104.14688c-1.18125,0.98438 -1.77188,2.55938 -1.77188,4.13438c0,1.575 0.59062,3.15 1.77188,4.13437c1.18125,1.18125 2.55937,1.77188 4.13438,1.77188c1.575,0 3.15,-0.59062 4.13437,-1.77188c1.18125,-1.18125 1.77187,-2.55937 1.77187,-4.13437c0,-1.575 -0.59062,-3.15 -1.77187,-4.13438c-2.16562,-2.16563 -6.10312,-2.16563 -8.26875,0z"/></g><g><path d="M52.95937,104.14688c-1.18125,0.98438 -1.77187,2.55938 -1.77187,4.13438c0,1.575 0.59062,3.15 1.77187,4.13437c1.18125,1.18125 2.55938,1.77188 4.13437,1.77188c1.575,0 3.15,-0.59062 4.13438,-1.77188c1.18125,-1.18125 1.77187,-2.55937 1.77187,-4.13437c0,-1.575 -0.59062,-3.15 -1.77187,-4.13438c-2.16563,-2.16563 -6.10312,-2.16563 -8.26875,0z"/></g><g><path d="M33.27187,104.14688c-1.18125,0.98438 -1.77187,2.55938 -1.77187,4.13438c0,1.575 0.59062,3.15 1.77187,4.13437c1.18125,1.18125 2.55938,1.77188 4.13437,1.77188c1.575,0 3.15,-0.59062 4.13438,-1.77188c1.18125,-1.18125 1.77187,-2.55937 1.77187,-4.13437c0,-1.575 -0.59063,-3.15 -1.77187,-4.13438c-2.16563,-2.16563 -6.10313,-2.16563 -8.26875,0z"/></g></g></g><g><g><g fill="#ecf0f1"><path d="M164.98125,102.17813l-14.9625,-6.49688c-3.74063,-1.37813 -6.3,-5.11875 -6.3,-9.25312v-37.60312c0,-8.85938 -3.15,-17.325 -8.85938,-24.01875c-3.74062,-4.33125 -10.2375,-4.33125 -13.97812,0c-5.5125,6.69375 -8.6625,15.35625 -8.6625,24.01875v37.20937c0,4.33125 -2.55937,8.07187 -6.49687,9.64687l-14.37188,5.5125c-3.9375,1.575 -6.49687,5.31563 -6.49687,9.64687v10.82813h27.5625h7.48125h16.73438h7.0875h27.5625v-10.04063c0,-3.9375 -2.55937,-7.67813 -6.3,-9.45z"/></g><g fill="#ffffff"><path d="M143.71875,48.825c0,-8.85938 -3.15,-17.325 -8.85938,-24.01875c-3.74062,-4.33125 -10.2375,-4.33125 -13.97812,0c-5.5125,6.69375 -8.6625,15.35625 -8.6625,24.01875z"/></g><g fill="#ecf0f1"><g><path d="M210.65625,218.53125c-3.54375,0 -6.69375,0.59062 -9.84375,1.77187c-0.19687,-10.82812 -8.85937,-19.49063 -19.6875,-19.49063c-1.18125,0 -2.3625,0.19688 -3.54375,0.39375c3.54375,-5.90625 5.5125,-12.79687 5.5125,-20.08125c0,-21.65625 -17.71875,-39.375 -39.375,-39.375c-3.54375,0 -6.69375,0.39375 -10.04062,1.37813c-2.3625,-0.98438 -4.92187,-1.37813 -7.67813,-1.37813c-12.40312,0 -22.64062,9.64688 -23.625,21.85312c-1.37813,-0.19688 -2.75625,-0.19688 -3.9375,-0.19688c-17.325,0 -31.5,13.19063 -33.27187,29.925c-1.96875,-0.19688 -3.9375,-0.39375 -6.10313,-0.39375c-24.01875,0 -43.3125,19.29375 -43.3125,43.3125c0,2.75625 0.19687,5.31563 0.7875,7.875h223.45313c-1.96875,-14.37187 -14.37188,-25.59375 -29.33438,-25.59375z"/></g></g><g fill="#ffffff"><path d="M141.55313,250.03125h-130.92188c-3.34687,0 -5.90625,-2.55937 -5.90625,-5.90625c0,-3.34688 2.55938,-5.90625 5.90625,-5.90625h130.92188c3.34688,0 5.90625,2.55937 5.90625,5.90625c0,3.34688 -2.75625,5.90625 -5.90625,5.90625z"/></g><g fill="#ffffff"><path d="M220.30313,250.03125h-39.375c-3.34688,0 -5.90625,-2.55937 -5.90625,-5.90625c0,-3.34688 2.55937,-5.90625 5.90625,-5.90625h39.375c3.34688,0 5.90625,2.55937 5.90625,5.90625c0,3.34688 -2.75625,5.90625 -5.90625,5.90625z"/></g><g fill="#ffffff"><g><path d="M16.5375,250.03125c-2.75625,0 -5.31562,-1.96875 -5.70938,-4.92187c-0.7875,-2.95312 -0.98438,-5.90625 -0.98438,-8.85937c0,-27.5625 22.64063,-50.00625 50.4,-49.21875c4.33125,-17.12813 19.88438,-29.53125 38.19375,-29.53125c3.34688,0 5.90625,2.55937 5.90625,5.90625c0,3.34688 -2.55937,5.90625 -5.90625,5.90625c-14.175,0 -25.9875,10.63125 -27.36562,24.60938c-0.19688,1.575 -0.98437,3.15 -2.16563,4.13437c-1.18125,0.98438 -2.95312,1.37813 -4.52812,1.18125c-1.77188,-0.19688 -3.54375,-0.39375 -5.31562,-0.39375c-20.67188,0 -37.40625,16.73438 -37.40625,37.40625c0,2.16562 0.19687,4.52812 0.59063,6.89062c0.59062,3.15 -1.575,6.3 -4.725,6.89063c-0.39375,0 -0.7875,0 -0.98437,0z"/></g><g><path d="M239.79375,250.03125c-2.95312,0 -5.5125,-2.16562 -5.90625,-5.11875c-1.575,-11.61563 -11.61562,-20.475 -23.42812,-20.475c-2.55938,0 -5.31563,0.39375 -7.875,1.37813c-1.77187,0.59062 -3.74062,0.39375 -5.31563,-0.7875c-1.575,-1.18125 -2.55937,-2.95312 -2.55937,-4.725c0,-7.48125 -6.3,-13.58438 -13.78125,-13.58438c-0.7875,0 -1.575,0 -2.55938,0.19688c-2.3625,0.39375 -4.52812,-0.59062 -5.90625,-2.3625c-1.37813,-1.96875 -1.37813,-4.33125 -0.19687,-6.3c3.34688,-5.31562 4.92188,-11.22187 4.92188,-17.12812c0,-13.97812 -8.46562,-26.18438 -21.2625,-31.30312c-2.95312,-1.18125 -4.52812,-4.52813 -3.34688,-7.67813c1.18125,-2.95313 4.52812,-4.52812 7.67813,-3.34688c17.325,6.89063 28.74375,23.42813 28.74375,42.32813c0,4.92187 -0.7875,9.84375 -2.3625,14.37187c9.05625,1.96875 16.34062,8.85938 18.9,17.52188c1.77188,-0.19688 3.34688,-0.39375 5.11875,-0.39375c17.71875,0 32.68125,13.19063 35.04375,30.7125c0.39375,3.15 -1.77188,6.3 -5.11875,6.69375c-0.19688,0 -0.39375,0 -0.7875,0z"/></g></g><g fill="#ecf0f1"><path d="M114.1875,190.96875v-66.9375h27.5625v66.9375"/></g><g fill="#ffffff"><path d="M141.75,196.875c-3.34688,0 -5.90625,-2.55937 -5.90625,-5.90625v-66.9375c0,-3.34688 2.55937,-5.90625 5.90625,-5.90625c3.34688,0 5.90625,2.55937 5.90625,5.90625v66.9375c0,3.34688 -2.55937,5.90625 -5.90625,5.90625z"/></g><g fill="#ffffff"><path d="M114.1875,196.875c-3.34688,0 -5.90625,-2.55937 -5.90625,-5.90625v-66.9375c0,-3.34688 2.55937,-5.90625 5.90625,-5.90625c3.34688,0 5.90625,2.55937 5.90625,5.90625v66.9375c0,3.34688 -2.55937,5.90625 -5.90625,5.90625z"/></g><g fill="#ffffff"><path d="M114.1875,226.40625c-1.575,0 -3.15,-0.59062 -4.13438,-1.77188c-1.18125,-0.98437 -1.77187,-2.55937 -1.77187,-4.13437c0,-1.575 0.59062,-3.15 1.77187,-4.13438c2.16563,-2.16563 6.10313,-2.16563 8.26875,0c1.18125,1.18125 1.77187,2.55937 1.77187,4.13438c0,1.575 -0.59062,3.15 -1.77187,4.13437c-0.98437,1.18125 -2.55938,1.77188 -4.13438,1.77188z"/></g><g fill="#ffffff"><path d="M171.28125,127.77188h-86.625c-3.34688,0 -5.90625,-2.55938 -5.90625,-5.90625v-10.82812c0,-6.69375 4.13437,-12.6 10.2375,-15.15937l14.37187,-5.5125c1.77187,-0.59062 2.75625,-2.3625 2.75625,-4.13438v-37.40625c0,-10.2375 3.74062,-20.08125 10.2375,-27.75938c2.95313,-3.34687 7.28437,-5.31562 11.61562,-5.31562c4.33125,0 8.6625,1.96875 11.41875,5.31562c6.69375,7.67813 10.2375,17.71875 10.2375,27.75938v37.60313c0,1.77187 0.98438,3.34687 2.75625,4.13437l14.9625,6.49688c5.90625,2.55937 9.84375,8.46562 9.84375,14.9625v10.04063c0,2.95313 -2.55937,5.70938 -5.90625,5.70938zM90.5625,115.95938h74.8125v-4.13438c0,-1.77188 -0.98437,-3.34688 -2.75625,-4.13438l-14.9625,-6.49687c-5.90625,-2.55937 -9.84375,-8.46563 -9.84375,-14.9625v-37.40625c0,-7.28438 -2.55937,-14.56875 -7.48125,-20.08125c-0.7875,-0.98437 -1.96875,-1.18125 -2.55938,-1.18125c-0.59062,0 -1.575,0.19687 -2.55937,1.18125c-4.725,5.70937 -7.48125,12.79687 -7.48125,20.08125v37.20937c0,6.69375 -4.13438,12.6 -10.2375,15.15937l-14.37188,5.5125c-1.77187,0.59062 -2.75625,2.3625 -2.75625,4.13437v5.11875z"/></g></g></g></g></g><path d="M126,252c-69.58788,0 -126,-56.41212 -126,-126v0c0,-69.58788 56.41212,-126 126,-126h0c69.58788,0 126,56.41212 126,126v0c0,69.58788 -56.41212,126 -126,126z" fill="none"/><path d="M126,246.96c-66.80436,0 -120.96,-54.15564 -120.96,-120.96v0c0,-66.80436 54.15564,-120.96 120.96,-120.96v0c66.80436,0 120.96,54.15564 120.96,120.96v0c0,66.80436 -54.15564,120.96 -120.96,120.96z" fill="none"/><path d="M126,252c-69.58788,0 -126,-56.41212 -126,-126v0c0,-69.58788 56.41212,-126 126,-126h0c69.58788,0 126,56.41212 126,126v0c0,69.58788 -56.41212,126 -126,126z" fill="none"/><path d="M126,246.96c-66.80436,0 -120.96,-54.15564 -120.96,-120.96v0c0,-66.80436 54.15564,-120.96 120.96,-120.96v0c66.80436,0 120.96,54.15564 120.96,120.96v0c0,66.80436 -54.15564,120.96 -120.96,120.96z" fill="none"/></g></g></svg>
