<?xml version="1.0" encoding="UTF-8"?>
<svg xmlns="http://www.w3.org/2000/svg" xmlns:xlink="http://www.w3.org/1999/xlink" viewBox="0 0 48 48" version="1.1" width="64px" height="64px">
<g id="surface1">
<path style=" fill:#90CAF9;" d="M 4 6 C 4 4.894531 4.894531 4 6 4 L 28 4 C 29.105469 4 30 4.894531 30 6 L 30 28 C 30 29.105469 29.105469 30 28 30 L 6 30 C 4.894531 30 4 29.105469 4 28 Z "/>
<path style=" fill:#90CAF9;" d="M 30 18 L 42 18 C 43.105469 18 44 18.894531 44 20 L 44 42 C 44 43.105469 43.105469 44 42 44 L 20 44 C 18.894531 44 18 43.105469 18 42 L 18 30 Z "/>
<path style=" fill:#1565C0;" d="M 21 11 L 11 21 L 21 21 Z "/>
<path style=" fill:#1565C0;" d="M 11.828125 9 L 20.828125 18 L 17.996094 20.828125 L 9 11.828125 Z "/>
<path style=" fill:#1565C0;" d="M 27 37 L 37 27 L 27 27 Z "/>
<path style=" fill:#1565C0;" d="M 36.089844 38.914063 L 27.089844 29.914063 L 29.917969 27.085938 L 38.917969 36.085938 Z "/>
<path style=" fill:#2196F3;" d="M 18.949219 30.464844 L 17.535156 29.050781 L 20.363281 26.222656 L 21.777344 27.636719 Z M 23.191406 26.222656 L 21.777344 24.808594 L 24.605469 21.980469 L 26.019531 23.394531 Z M 27.433594 21.980469 L 26.019531 20.566406 L 28.851563 17.734375 L 30.265625 19.148438 Z "/>
</g>
</svg>
