<?xml version="1.0" encoding="UTF-8"?>
<svg xmlns="http://www.w3.org/2000/svg" xmlns:xlink="http://www.w3.org/1999/xlink" viewBox="0 0 48 48" version="1.1" width="64px" height="64px">
<g id="surface1">
<path style=" fill:#90CAF9;" d="M 40 45 L 8 45 L 8 3 L 30 3 L 40 13 Z "/>
<path style=" fill:#E1F5FE;" d="M 38.5 14 L 29 14 L 29 4.5 Z "/>
<path style=" fill:#1565C0;" d="M 14 9 L 25 9 L 25 14 L 14 14 Z "/>
<path style=" fill:#1565C0;" d="M 34 26 L 18 26 L 18 24 L 34 24 Z M 34 20 L 18 20 L 18 22 L 34 22 Z M 34 32 L 18 32 L 18 34 L 34 34 Z M 34 36 L 18 36 L 18 38 L 34 38 Z M 34 28 L 18 28 L 18 30 L 34 30 Z M 14 22 L 16 22 L 16 20 L 14 20 Z M 14 26 L 16 26 L 16 24 L 14 24 Z M 14 38 L 16 38 L 16 36 L 14 36 Z M 14 30 L 16 30 L 16 28 L 14 28 Z M 14 34 L 16 34 L 16 32 L 14 32 Z "/>
</g>
</svg>
