<?xml version="1.0" encoding="UTF-8"?>
<svg width="116px" height="264px" viewBox="0 0 116 264" version="1.1" xmlns="http://www.w3.org/2000/svg" xmlns:xlink="http://www.w3.org/1999/xlink">
    <!-- Generator: Sketch 49 (51002) - http://www.bohemiancoding.com/sketch -->
    <title>rocket</title>
    <desc>Created with Sketch.</desc>
    <defs></defs>
    <g id="Page-1" stroke="none" stroke-width="1" fill="none" fill-rule="evenodd">
        <g id="rocket" transform="translate(-77.000000, -1.000000)">
            <polygon id="Shape" points="11 265 11 13 263 13 263 265"></polygon>
            <g id="surface1" transform="translate(135.000000, 135.500000) rotate(-45.000000) translate(-135.000000, -135.500000) translate(40.000000, 40.000000)" fill-rule="nonzero">
                <path d="M15.33789,145.7168 C23.54102,137.51368 36.83008,137.51368 45.0332,145.7168 C53.23633,153.91993 53.23633,167.22949 45.0332,175.41211 C36.83008,183.61524 4.20214,186.54785 4.20214,186.54785 C4.20214,186.54785 7.13476,153.91992 15.33788,145.7168 L15.33789,145.7168 Z" id="Shape" fill="#FF3D00"></path>
                <path d="M22.76172,153.14063 C26.86328,149.03907 33.50781,149.03907 37.60938,153.14063 C41.71094,157.24219 41.71094,163.88672 37.60938,167.98829 C33.50782,172.08985 19.04981,171.72071 19.04981,171.72071 C19.04981,171.72071 18.66016,157.2627 22.76172,153.14063 Z" id="Shape" fill="#FFEB3B"></path>
                <path d="M126.69531,19.51172 C115.55957,30.62696 19.0498,127.15723 19.0498,127.15723 L63.59277,171.7002 C63.59277,171.7002 160.10253,75.19044 171.23828,64.05469 C177.12402,58.18946 181.94336,41.00391 185.2041,26.03321 L164.7168,5.5459 C149.74609,8.82715 132.56055,13.64649 126.69531,19.51172 Z" id="Shape" fill="#AC8DE0"></path>
                <polygon id="Shape" fill="#481F9A" points="82.15234 190.28027 71.0166 164.29687 115.55957 119.73339 108.13574 164.29687"></polygon>
                <polygon id="Shape" fill="#481F9A" points="0.49024 108.59766 26.47363 119.7334 71.0166 75.19043 26.47363 82.61426"></polygon>
                <path d="M164.7168,5.5459 L185.2041,26.03321 C188.13672,12.60059 189.79785,0.93165 189.79785,0.93165 C189.79785,0.93165 178.16992,2.63379 164.7168,5.54591 L164.7168,5.5459 Z" id="Shape" fill="#481F9A"></path>
                <polygon id="Shape" fill="#481F9A" points="63.59277 171.72071 48.74511 171.72071 19.0498 142.00489 19.0498 127.15723"></polygon>
                <path d="M137.19531,64.05469 C137.19531,69.8584 132.49902,74.55469 126.69531,74.55469 C120.8916,74.55469 116.19531,69.8584 116.19531,64.05469 C116.19531,58.25098 120.8916,53.55469 126.69531,53.55469 C132.49902,53.55469 137.19531,58.25098 137.19531,64.05469 Z" id="Shape" fill="#311B92"></path>
                <path d="M111.21191,90.03809 C111.21191,95.8418 106.51562,100.53809 100.71191,100.53809 C94.9082,100.53809 90.21191,95.8418 90.21191,90.03809 C90.21191,84.23438 94.9082,79.53809 100.71191,79.53809 C106.51562,79.53809 111.21191,84.23438 111.21191,90.03809 Z" id="Shape" fill="#311B92"></path>
                <path d="M85.22852,116.02149 C85.22852,121.8252 80.53223,126.52149 74.72852,126.52149 C68.92481,126.52149 64.22852,121.8252 64.22852,116.02149 C64.22852,110.21778 68.92481,105.52149 74.72852,105.52149 C80.53223,105.52149 85.22852,110.21778 85.22852,116.02149 Z" id="Shape" fill="#311B92"></path>
            </g>
        </g>
    </g>
</svg>